<?xml version="1.0" standalone="no"?>
<!DOCTYPE svg PUBLIC "-//W3C//DTD SVG 20010904//EN"
 "http://www.w3.org/TR/2001/REC-SVG-20010904/DTD/svg10.dtd">
<svg version="1.0" xmlns="http://www.w3.org/2000/svg"
 width="401.000000pt" height="400.000000pt" viewBox="0 0 401.000000 400.000000"
 preserveAspectRatio="xMidYMid meet">

<g transform="translate(0.000000,400.000000) scale(0.100000,-0.100000)"
fill="#000000" stroke="none">
<path d="M1800 2878 c-41 -5 -79 -13 -84 -19 -6 -5 -25 -9 -43 -9 -18 0 -33
-4 -33 -9 0 -5 -15 -12 -34 -15 -19 -4 -36 -10 -38 -14 -2 -4 -28 -20 -58 -35
-30 -15 -73 -43 -95 -63 -22 -19 -48 -37 -57 -40 -10 -3 -18 -12 -18 -20 0 -8
-7 -14 -15 -14 -8 0 -15 -4 -15 -10 0 -5 -8 -18 -17 -28 -37 -38 -63 -72 -63
-82 0 -6 -4 -10 -9 -10 -5 0 -13 -10 -17 -22 -4 -13 -10 -25 -13 -28 -10 -7
-41 -76 -41 -89 0 -6 -4 -11 -10 -11 -5 0 -10 -10 -10 -23 0 -13 -7 -32 -15
-43 -8 -10 -15 -33 -15 -49 0 -17 -5 -36 -11 -42 -16 -16 -16 -340 0 -356 6
-6 11 -22 11 -37 1 -14 7 -36 15 -50 8 -14 14 -35 15 -47 0 -13 5 -23 10 -23
6 0 10 -5 10 -11 0 -13 31 -82 41 -89 3 -3 9 -15 13 -27 4 -13 12 -23 17 -23
5 0 9 -4 9 -9 0 -26 206 -230 234 -232 6 0 25 -9 41 -20 17 -11 38 -22 48 -25
9 -4 17 -10 17 -14 0 -4 16 -11 35 -14 19 -4 35 -11 35 -16 0 -6 15 -10 33
-10 18 0 39 -6 45 -13 18 -17 426 -17 443 1 7 6 23 12 35 12 12 0 35 7 50 15
16 8 37 15 47 15 9 0 17 5 17 10 0 6 6 10 14 10 7 0 19 7 26 15 7 8 21 15 31
15 11 0 19 5 19 10 0 6 7 10 15 10 9 0 18 7 21 15 4 8 12 15 20 15 8 0 14 3
14 8 0 4 23 23 50 42 27 19 50 40 50 45 0 6 18 30 40 54 22 23 40 47 40 52 0
5 4 9 10 9 5 0 12 11 16 25 3 14 10 25 15 25 5 0 9 9 9 20 0 11 7 23 15 26 8
4 15 12 15 19 0 7 7 26 15 41 8 16 15 39 15 51 0 12 5 25 10 28 6 3 10 19 10
34 0 15 5 32 12 39 8 8 11 64 11 177 0 113 -3 169 -11 177 -7 7 -12 24 -12 39
0 15 -4 30 -9 33 -4 3 -11 23 -15 43 -4 21 -14 52 -24 70 -9 17 -28 52 -41 77
-14 25 -28 46 -33 46 -4 0 -8 6 -8 14 0 8 -3 16 -8 18 -4 2 -23 23 -42 48 -39
50 -79 90 -90 90 -4 0 -23 15 -42 33 -19 17 -61 46 -94 62 -32 17 -61 33 -64
37 -3 3 -18 10 -33 13 -15 4 -30 11 -33 16 -3 5 -20 9 -38 9 -17 0 -36 4 -42
10 -11 11 -169 30 -239 29 -27 -1 -84 -6 -125 -11z m294 -73 c11 -8 35 -15 53
-15 18 0 33 -4 33 -10 0 -5 16 -10 35 -10 22 0 38 -6 41 -15 4 -8 12 -15 20
-15 8 0 32 -11 54 -25 22 -14 44 -25 50 -25 5 0 10 -3 10 -7 0 -5 18 -21 40
-37 22 -17 40 -35 40 -41 0 -6 -13 -19 -30 -28 -16 -10 -30 -22 -30 -28 0 -5
-7 -9 -15 -9 -31 0 -57 -39 -53 -83 3 -39 1 -42 -25 -45 -16 -2 -43 2 -60 8
-153 57 -477 35 -544 -36 -26 -28 -33 -29 -98 -6 -72 25 -75 28 -75 78 0 50
-10 63 -82 109 -27 17 -48 33 -48 38 0 21 92 91 167 127 23 11 45 24 48 30 3
5 19 10 35 10 16 0 32 5 35 10 3 6 18 10 33 11 15 0 43 7 62 14 51 20 278 19
304 0z m93 -460 c23 -10 68 -15 127 -15 l91 0 20 -37 c11 -21 26 -44 32 -51 7
-7 13 -20 13 -28 0 -8 5 -14 10 -14 6 0 10 -6 10 -14 0 -7 7 -19 15 -26 8 -7
15 -19 15 -28 0 -8 11 -30 25 -48 14 -18 25 -40 25 -48 0 -9 5 -16 10 -16 6 0
10 -10 10 -23 0 -15 -15 -37 -42 -60 -41 -36 -41 -36 -71 -19 -16 9 -43 31
-61 48 -18 17 -42 35 -54 38 -12 4 -22 11 -22 15 0 4 -22 20 -50 36 -27 17
-50 33 -50 38 0 4 -6 7 -14 7 -8 0 -16 7 -20 15 -3 8 -15 15 -26 15 -11 0 -20
4 -20 10 0 5 -19 19 -42 30 -43 21 -79 41 -88 50 -14 14 -84 40 -110 40 -48 0
-80 -18 -134 -75 -28 -30 -59 -55 -68 -55 -9 0 -20 -4 -23 -10 -3 -5 -17 -10
-30 -10 -19 0 -22 4 -17 23 5 19 46 84 63 97 4 3 9 15 13 28 4 12 12 22 17 22
5 0 9 6 9 14 0 13 30 31 91 55 41 16 304 13 346 -4z m-639 -40 c29 -14 59 -25
67 -25 8 0 15 -2 15 -6 0 -9 -44 -87 -57 -102 -21 -22 -16 -96 8 -126 17 -21
29 -26 68 -26 26 0 56 7 67 15 10 8 27 15 36 15 9 0 43 27 75 59 32 33 65 61
73 62 18 5 100 -21 100 -32 0 -4 11 -10 25 -13 14 -4 25 -11 25 -16 0 -6 5
-10 11 -10 6 0 38 -18 71 -40 33 -22 64 -40 69 -40 5 0 9 -4 9 -8 0 -5 18 -19
40 -31 23 -12 57 -38 78 -57 20 -19 41 -34 45 -34 5 0 14 -6 22 -13 7 -7 27
-25 45 -40 21 -18 30 -34 28 -49 -5 -40 -49 -32 -140 24 -134 83 -183 108
-214 108 -31 0 -34 -3 -34 -30 0 -20 7 -33 23 -41 12 -7 24 -15 27 -18 8 -10
44 -31 63 -37 9 -4 17 -10 17 -15 0 -5 6 -9 14 -9 8 0 21 -6 28 -13 7 -7 27
-19 45 -26 18 -7 39 -23 47 -36 14 -21 13 -23 -9 -35 -20 -10 -30 -10 -57 1
-18 7 -35 15 -38 18 -6 7 -33 24 -85 52 -22 11 -42 24 -45 28 -8 11 -60 31
-79 31 -19 0 -31 -18 -31 -47 0 -15 38 -52 53 -53 5 0 23 -10 40 -23 18 -13
50 -32 72 -43 64 -31 82 -55 49 -68 -19 -7 -104 13 -104 25 0 5 -8 9 -19 9
-10 0 -24 7 -31 15 -7 8 -21 15 -31 15 -10 0 -21 5 -24 10 -8 13 -72 13 -80
-1 -5 -7 -14 -3 -26 10 -10 11 -26 24 -34 29 -9 4 -23 28 -31 52 -14 41 -46
80 -66 80 -16 0 -34 24 -42 53 -12 51 -44 72 -108 72 -40 0 -63 -5 -74 -17
-15 -15 -20 -14 -62 8 -48 26 -77 30 -87 14 -7 -12 -55 -14 -55 -2 0 4 -12 20
-26 35 -25 27 -25 29 -10 60 18 36 38 69 46 77 5 5 49 84 77 140 10 19 21 37
24 40 4 3 9 15 13 28 9 28 20 28 84 -3z m-265 -507 l-6 -67 57 -55 c31 -30 56
-62 56 -70 0 -9 5 -16 10 -16 6 0 10 -6 10 -14 0 -7 24 -25 53 -39 29 -13 68
-40 87 -59 24 -24 48 -37 76 -41 28 -5 44 -14 53 -31 10 -17 24 -25 57 -30 53
-7 105 2 120 22 11 16 74 8 74 -9 0 -5 38 -9 84 -9 62 0 93 5 115 18 17 9 31
21 31 26 0 16 34 35 62 36 27 0 82 46 93 78 3 9 24 26 47 37 23 11 47 29 52
39 20 35 40 56 56 56 9 0 31 14 49 31 28 25 35 39 39 82 3 41 11 59 35 85 17
17 34 32 38 32 4 0 20 -13 36 -28 15 -16 35 -31 43 -35 10 -4 12 -8 4 -14 -6
-4 -14 -25 -18 -45 -4 -21 -11 -38 -16 -38 -6 0 -10 -11 -10 -25 0 -14 -4 -25
-9 -25 -5 0 -12 -11 -15 -25 -4 -14 -11 -25 -16 -25 -6 0 -10 -7 -10 -15 0
-17 -69 -114 -110 -155 -14 -14 -45 -41 -70 -60 -25 -19 -47 -37 -50 -40 -9
-10 -45 -31 -62 -36 -10 -4 -18 -10 -18 -15 0 -5 -8 -9 -19 -9 -10 0 -24 -7
-31 -15 -7 -8 -28 -15 -46 -15 -19 0 -34 -4 -34 -10 0 -5 -13 -10 -29 -10 -16
0 -46 -7 -67 -16 -47 -20 -285 -17 -306 4 -6 6 -27 12 -44 12 -18 0 -36 5 -39
10 -3 6 -19 10 -35 10 -16 0 -32 5 -35 10 -4 6 -29 20 -56 32 -27 12 -49 25
-49 30 0 4 -5 8 -11 8 -6 0 -16 6 -24 13 -7 6 -28 23 -46 37 -45 34 -99 86
-99 94 0 4 -6 13 -12 20 -40 41 -68 77 -69 88 0 7 -9 27 -20 43 -10 17 -22 37
-25 45 -3 8 -12 29 -20 47 -8 17 -14 40 -14 51 0 11 -6 23 -12 26 -10 5 -10 7
0 12 8 3 27 19 43 35 29 29 30 29 54 12 23 -17 24 -22 18 -85z m697 -248 c0
-5 5 -10 12 -10 6 0 29 -8 49 -17 28 -13 39 -24 39 -40 0 -20 -5 -23 -42 -23
-23 0 -57 5 -75 12 -29 11 -33 16 -33 50 0 34 3 38 25 38 14 0 25 -4 25 -10z"/>
<path d="M142 2823 l-92 -4 0 -768 0 -768 158 -7 c219 -9 855 4 864 18 4 6 8
35 8 64 0 49 -1 52 -25 52 -14 0 -25 -4 -25 -10 0 -5 -18 -13 -40 -16 -22 -4
-40 -10 -40 -15 0 -5 -21 -9 -46 -9 -25 0 -54 -5 -64 -10 -18 -9 -111 -18
-421 -36 -58 -4 -118 -4 -133 0 l-26 6 0 365 0 365 23 5 c12 3 130 2 262 -3
132 -4 248 -6 258 -4 14 4 17 13 15 41 l-3 36 -100 -3 c-55 -1 -180 -5 -277
-8 l-178 -5 0 331 0 330 279 0 c225 0 285 -3 314 -15 20 -8 50 -15 67 -15 16
0 30 -4 30 -9 0 -5 11 -12 25 -15 14 -4 25 -11 25 -16 0 -6 6 -10 14 -10 19 0
26 35 19 87 l-6 43 -131 1 c-72 0 -250 1 -396 3 -146 1 -307 1 -358 -1z"/>
<path d="M2628 2822 c-20 -2 -28 -10 -33 -33 -8 -33 2 -102 13 -97 133 67 190
78 390 78 l182 0 0 -744 0 -744 53 -4 c28 -2 72 -1 97 2 l45 5 3 743 2 743
193 -4 c181 -4 287 -18 287 -39 0 -5 7 -8 15 -8 9 0 29 -7 45 -15 l30 -16 0
66 c0 60 -2 65 -22 67 -43 3 -1273 3 -1300 0z"/>
</g>
</svg>
