<?xml version="1.0" standalone="no"?>
<!DOCTYPE svg PUBLIC "-//W3C//DTD SVG 20010904//EN"
 "http://www.w3.org/TR/2001/REC-SVG-20010904/DTD/svg10.dtd">
<svg version="1.0" xmlns="http://www.w3.org/2000/svg"
 width="400.000000pt" height="400.000000pt" viewBox="0 0 400.000000 400.000000"
 preserveAspectRatio="xMidYMid meet">

<g transform="translate(0.000000,400.000000) scale(0.100000,-0.100000)"
fill="#000000" stroke="none">
<path d="M1800 3934 c-20 -9 -85 -19 -155 -24 -134 -10 -165 -17 -165 -35 0
-7 -37 -18 -99 -29 -63 -11 -106 -24 -119 -36 -11 -10 -40 -21 -65 -25 -32 -5
-47 -12 -50 -26 -3 -10 -11 -21 -19 -23 -7 -2 -32 -9 -55 -15 -24 -7 -43 -18
-43 -25 0 -7 -17 -18 -38 -24 -21 -7 -49 -23 -62 -37 -14 -15 -34 -25 -52 -25
-23 0 -28 -4 -28 -25 0 -20 -5 -25 -23 -25 -16 0 -28 -9 -35 -25 -6 -14 -18
-25 -26 -25 -8 0 -23 -11 -34 -25 -11 -14 -25 -25 -30 -25 -6 0 -15 -6 -19
-14 -4 -8 -17 -15 -28 -17 -12 -3 -21 -14 -23 -27 -3 -16 -10 -22 -28 -22 -17
0 -24 -6 -24 -19 0 -11 -13 -29 -29 -41 -17 -11 -35 -36 -42 -54 -7 -19 -23
-39 -35 -45 -12 -5 -24 -20 -26 -33 -2 -15 -11 -24 -24 -26 -15 -2 -24 -13
-28 -33 -3 -19 -14 -33 -25 -36 -14 -3 -24 -20 -32 -55 -10 -36 -20 -53 -36
-59 -17 -6 -23 -16 -23 -39 0 -20 -9 -39 -25 -54 -14 -13 -25 -34 -25 -49 0
-13 -7 -27 -15 -31 -8 -3 -15 -12 -15 -19 0 -8 -6 -20 -14 -26 -7 -6 -16 -32
-20 -56 -3 -25 -17 -65 -30 -89 -13 -24 -29 -76 -35 -117 -8 -48 -18 -79 -29
-87 -16 -12 -17 -46 -17 -401 0 -358 1 -390 18 -409 10 -10 22 -48 28 -83 5
-35 14 -72 20 -81 5 -10 9 -25 9 -33 0 -8 4 -15 9 -15 5 0 14 -24 20 -52 13
-60 40 -119 58 -131 7 -4 13 -20 13 -35 0 -15 11 -37 25 -50 13 -13 25 -37 27
-55 2 -24 8 -33 24 -35 17 -2 23 -12 28 -44 4 -27 16 -49 36 -66 17 -15 30
-34 30 -43 0 -9 9 -19 20 -22 11 -3 23 -13 27 -24 7 -19 71 -100 110 -140 13
-12 23 -29 23 -37 0 -9 11 -18 25 -22 15 -4 25 -13 25 -24 0 -11 12 -22 31
-29 17 -6 33 -19 36 -29 3 -11 21 -25 43 -32 22 -7 42 -22 48 -35 6 -13 21
-25 34 -27 15 -2 24 -11 26 -25 2 -17 10 -23 27 -23 13 0 32 -10 42 -23 10
-13 39 -30 65 -37 29 -9 49 -21 51 -32 3 -10 14 -18 25 -18 12 0 24 -4 27 -10
3 -5 14 -10 24 -10 10 0 25 -9 32 -21 8 -11 33 -24 58 -30 24 -5 55 -19 69
-29 13 -11 39 -20 56 -20 35 0 96 -20 117 -37 31 -25 137 -35 444 -40 358 -6
532 4 599 36 44 21 98 37 158 46 20 3 38 12 41 19 3 8 30 19 60 26 37 7 56 17
59 28 3 10 25 23 54 31 27 8 55 22 61 32 7 9 33 23 58 30 27 8 47 21 51 32 3
10 19 21 36 24 19 4 33 14 39 29 4 13 15 24 24 24 8 0 32 16 52 35 20 19 43
35 50 35 8 0 18 11 23 25 7 17 17 25 34 25 17 0 26 7 30 24 3 14 16 26 30 30
14 3 28 16 31 29 7 22 13 30 74 95 17 19 31 38 31 43 0 5 4 9 9 9 5 0 11 9 14
21 3 11 15 23 26 26 13 3 21 13 21 28 0 14 9 26 25 33 15 7 25 20 25 32 0 23
27 70 47 83 7 4 13 17 13 28 0 22 15 51 48 92 12 16 22 35 22 43 0 8 3 14 8
14 15 0 42 63 42 98 0 21 10 55 21 77 12 22 28 69 35 104 8 35 20 72 29 81 25
27 38 260 31 535 -6 241 -16 343 -36 355 -6 3 -17 38 -25 76 -8 38 -24 87 -35
109 -11 21 -20 53 -20 70 0 17 -13 50 -30 75 -16 25 -30 51 -30 57 0 7 -9 18
-20 25 -11 7 -20 20 -20 30 0 9 -4 20 -10 23 -5 3 -10 12 -10 20 0 8 -13 34
-30 58 -16 25 -30 54 -30 66 0 13 -10 26 -25 33 -16 7 -25 19 -25 34 0 16 -7
24 -22 26 -13 2 -24 11 -26 22 -3 11 -19 36 -38 55 -19 20 -34 44 -34 54 0 10
-11 22 -25 27 -14 5 -27 20 -31 35 -4 18 -13 25 -30 25 -17 0 -25 7 -30 24 -3
13 -15 27 -27 30 -12 3 -42 23 -65 46 -24 22 -47 40 -52 40 -5 0 -12 9 -15 20
-4 13 -15 20 -30 20 -18 0 -26 7 -31 25 -4 16 -13 25 -26 25 -11 0 -36 14 -55
30 -18 17 -42 30 -53 30 -10 0 -31 11 -46 25 -26 24 -40 30 -89 37 -11 2 -21
12 -23 24 -2 17 -12 23 -49 28 -26 3 -56 15 -67 25 -13 12 -55 25 -109 36 -53
9 -97 23 -108 34 -23 21 -81 31 -188 31 -53 0 -85 5 -106 17 -44 25 -324 30
-375 7z m475 -187 c6 -7 54 -20 109 -29 57 -10 106 -24 117 -34 10 -9 40 -18
66 -21 53 -5 113 -28 113 -43 0 -6 11 -10 24 -10 14 0 31 -7 40 -15 8 -8 19
-15 24 -15 5 0 15 -7 22 -15 7 -8 19 -15 27 -15 8 0 33 -13 56 -28 23 -16 54
-32 70 -36 15 -3 27 -13 27 -22 0 -9 13 -21 29 -27 16 -6 34 -21 40 -34 6 -13
16 -23 23 -23 19 0 88 -72 88 -92 0 -9 -10 -23 -22 -29 -13 -7 -29 -20 -36
-31 -7 -10 -24 -18 -36 -18 -15 0 -26 -7 -29 -19 -3 -12 -20 -24 -46 -32 -33
-10 -52 -25 -86 -72 -38 -50 -45 -66 -45 -105 0 -29 6 -52 17 -65 17 -18 17
-19 -2 -33 -38 -28 -214 -13 -238 20 -9 12 -44 18 -137 25 -69 6 -147 18 -175
27 -40 13 -75 15 -175 10 -69 -4 -143 -11 -165 -17 -22 -6 -98 -15 -170 -19
-114 -7 -136 -11 -175 -34 -25 -14 -52 -26 -61 -26 -15 0 -51 -26 -100 -72
-11 -10 -24 -18 -29 -18 -5 0 -10 -4 -10 -10 0 -20 -91 -10 -142 15 -27 14
-66 25 -87 25 -84 0 -126 48 -115 129 10 77 -2 136 -31 149 -13 6 -25 21 -27
33 -2 16 -13 25 -34 31 -18 4 -43 19 -55 33 -15 15 -35 25 -52 25 -20 0 -30 6
-34 20 -3 11 -16 23 -29 26 -18 5 -24 13 -24 35 0 17 6 32 15 35 8 4 15 12 15
18 0 7 16 21 35 32 19 10 37 26 40 35 3 9 19 19 36 23 19 3 33 13 36 25 3 11
18 24 34 30 16 5 44 21 62 35 19 15 41 26 49 26 9 0 21 7 28 15 7 8 18 15 25
15 7 0 18 7 25 15 7 8 23 15 36 15 12 0 25 4 29 9 10 17 67 41 96 41 32 0 81
17 90 31 3 6 50 17 105 25 54 9 108 21 119 27 33 18 168 26 385 21 146 -3 208
-8 215 -17z m182 -1009 c27 -7 50 -16 53 -19 6 -8 72 -21 222 -44 88 -13 104
-13 159 1 83 21 128 13 136 -26 3 -17 16 -41 29 -55 13 -14 24 -35 24 -45 0
-10 11 -31 25 -45 13 -15 29 -42 35 -61 6 -19 17 -34 24 -34 13 0 36 -55 36
-87 0 -11 10 -24 24 -31 18 -8 25 -21 31 -57 5 -34 12 -49 25 -52 11 -3 22
-15 25 -27 11 -37 29 -71 48 -84 9 -7 17 -24 17 -37 0 -13 6 -28 14 -32 36
-21 47 -84 17 -105 -10 -7 -21 -23 -25 -35 -4 -13 -18 -26 -30 -29 -13 -3 -28
-16 -35 -30 -7 -16 -19 -24 -35 -24 -13 0 -26 -7 -30 -15 -3 -8 -12 -15 -19
-15 -8 0 -20 7 -27 15 -7 8 -19 15 -27 15 -8 0 -33 16 -56 35 -22 19 -47 35
-54 35 -7 0 -19 11 -25 25 -6 14 -20 25 -30 25 -10 0 -23 11 -30 25 -6 14 -23
27 -39 30 -16 4 -37 17 -47 29 -9 13 -34 28 -54 35 -21 7 -38 20 -41 31 -3 12
-14 20 -26 20 -13 0 -25 9 -30 23 -5 13 -24 28 -47 36 -22 8 -45 22 -52 32 -7
11 -22 19 -33 19 -11 0 -24 10 -30 23 -7 15 -26 28 -55 36 -26 8 -52 24 -61
37 -8 13 -23 24 -33 24 -10 0 -23 7 -31 16 -17 21 -64 44 -89 44 -14 0 -24 8
-27 20 -4 14 -19 24 -50 31 -24 7 -48 19 -52 28 -5 9 -29 22 -54 29 -25 8 -54
24 -66 38 -19 22 -28 24 -113 24 -121 0 -166 -8 -173 -30 -3 -10 -19 -20 -36
-24 -18 -3 -33 -13 -36 -25 -2 -10 -16 -24 -29 -31 -15 -8 -24 -22 -24 -37 0
-18 -6 -23 -24 -23 -18 0 -26 -6 -28 -22 -2 -12 -14 -28 -28 -35 -13 -7 -29
-18 -35 -25 -17 -22 -63 -48 -85 -48 -11 0 -20 -4 -20 -8 0 -4 -21 -14 -46
-21 -39 -12 -47 -12 -55 0 -5 8 -7 20 -4 27 3 8 5 24 5 37 0 15 7 26 19 30 11
3 22 19 26 35 3 16 17 39 29 52 13 13 26 35 30 51 4 18 13 27 26 27 13 0 22 9
26 28 4 15 15 34 26 42 10 9 25 34 32 55 10 27 21 41 35 43 13 2 21 11 21 22
0 24 20 35 95 50 33 7 67 18 75 25 22 19 56 22 362 23 193 2 292 -2 325 -10z
m-1436 -58 c5 0 9 -9 9 -19 0 -15 10 -20 50 -26 33 -4 55 -14 64 -26 9 -13 30
-22 65 -26 28 -3 59 -12 68 -20 17 -13 17 -14 -4 -29 -13 -9 -23 -27 -23 -40
0 -16 -8 -27 -23 -33 -15 -6 -26 -23 -35 -55 -7 -28 -18 -46 -26 -46 -22 0
-39 -100 -34 -196 4 -79 5 -82 43 -120 l39 -39 128 2 c122 1 130 3 159 27 17
14 40 26 52 26 27 0 42 10 50 33 3 9 14 17 24 17 22 1 53 23 53 39 0 6 4 11 9
11 15 0 91 79 91 95 0 9 8 19 18 22 9 4 36 20 60 36 36 24 49 28 80 22 20 -4
44 -12 52 -19 8 -7 35 -21 60 -30 24 -10 50 -26 58 -37 7 -10 24 -19 38 -19
14 0 36 -11 50 -25 15 -15 36 -25 54 -25 23 0 31 -5 36 -25 4 -18 13 -25 29
-25 13 0 27 -4 30 -10 3 -5 15 -10 27 -10 11 0 22 -8 25 -19 3 -11 17 -22 32
-26 14 -3 31 -15 36 -28 6 -13 23 -24 44 -28 18 -4 44 -19 58 -33 13 -14 32
-26 41 -26 10 0 22 -10 27 -22 6 -12 28 -28 52 -37 24 -8 46 -24 52 -38 7 -15
19 -23 35 -23 18 0 25 -6 28 -22 2 -15 11 -24 26 -26 12 -2 29 -14 37 -26 9
-13 34 -29 56 -36 26 -9 44 -22 50 -37 6 -16 17 -23 34 -23 20 0 25 -5 25 -25
0 -20 5 -25 23 -25 16 0 28 -9 35 -25 6 -14 18 -25 26 -25 18 0 31 -22 39 -68
8 -39 -19 -72 -59 -72 -42 0 -106 21 -140 46 -16 12 -47 29 -67 38 -20 8 -37
22 -37 30 0 9 -6 16 -12 16 -37 0 -86 22 -91 40 -3 13 -14 20 -29 20 -14 0
-35 11 -48 25 -12 13 -38 29 -56 35 -18 6 -36 20 -39 30 -4 13 -19 21 -51 26
-35 5 -48 12 -56 30 -10 22 -17 24 -89 24 l-78 0 -10 -37 c-6 -21 -11 -43 -11
-49 0 -26 28 -65 60 -81 19 -10 44 -28 55 -40 11 -13 27 -23 35 -23 8 0 30
-13 49 -29 19 -16 46 -32 62 -35 16 -3 30 -14 34 -26 3 -11 13 -20 22 -20 26
0 83 -32 83 -46 0 -9 11 -14 28 -14 17 0 38 -10 52 -25 12 -13 37 -29 55 -35
18 -6 37 -22 43 -35 7 -14 19 -25 28 -25 21 0 14 -30 -11 -44 -11 -6 -24 -16
-30 -22 -5 -6 -25 -14 -43 -18 -25 -4 -36 -1 -49 14 -10 11 -30 20 -45 20 -16
0 -28 5 -28 10 0 6 -9 10 -20 10 -11 0 -20 7 -20 15 0 8 -16 18 -35 24 -19 5
-49 21 -66 35 -17 14 -41 26 -55 26 -17 0 -25 7 -30 25 -5 19 -13 25 -33 25
-46 0 -71 11 -71 31 0 12 -7 19 -18 19 -10 0 -27 7 -38 15 -10 8 -26 15 -35
15 -9 0 -19 7 -23 15 -10 26 -64 18 -97 -14 -24 -25 -29 -37 -29 -81 0 -47 2
-52 29 -61 16 -6 31 -18 34 -29 3 -10 18 -21 35 -25 17 -3 42 -17 56 -30 14
-13 36 -25 48 -27 13 -2 27 -13 33 -25 5 -13 17 -23 26 -23 31 0 78 -22 84
-39 3 -11 25 -23 54 -31 34 -9 52 -20 60 -37 6 -13 19 -23 31 -23 36 0 36 -30
-1 -61 -38 -33 -64 -36 -90 -13 -10 9 -37 18 -61 21 -41 6 -78 23 -106 50 -7
7 -22 13 -32 13 -10 0 -22 5 -25 10 -3 6 -14 10 -25 10 -10 0 -20 6 -23 13 -3
8 -27 20 -54 27 -26 7 -56 22 -65 34 -13 17 -30 21 -91 24 -68 4 -76 2 -90
-19 l-16 -23 -23 22 c-13 12 -35 33 -49 47 -15 14 -35 25 -46 25 -15 0 -22 11
-32 49 -7 28 -19 55 -27 62 -8 6 -14 18 -14 27 0 32 -23 79 -44 88 -11 5 -25
19 -31 31 -5 13 -26 27 -55 36 -29 9 -46 21 -49 33 -2 10 -12 26 -23 35 -10
10 -22 33 -25 53 -3 20 -10 39 -14 42 -5 3 -9 14 -9 25 0 10 -5 19 -12 19 -7
0 -26 14 -43 30 -36 35 -131 64 -185 56 -82 -11 -122 -25 -145 -50 -21 -23
-31 -26 -58 -21 -38 9 -57 22 -57 41 0 9 -11 14 -29 14 -17 0 -32 4 -35 9 -3
5 -18 12 -33 16 -15 3 -31 11 -34 17 -10 16 -76 0 -98 -23 -15 -16 -29 -20
-67 -17 -41 3 -49 6 -52 25 -2 13 -13 24 -28 27 -17 5 -24 13 -24 31 0 15 -9
31 -24 40 l-25 16 25 49 c13 26 24 57 24 67 0 11 11 25 25 31 14 6 25 20 25
30 0 32 21 82 35 82 7 0 19 22 26 50 7 28 19 50 26 50 14 0 33 31 33 55 0 9 6
23 13 30 31 36 37 45 37 63 0 11 10 26 23 34 13 9 27 34 34 61 8 27 21 51 33
57 11 6 20 19 20 30 0 10 5 22 10 25 6 3 10 15 10 25 0 18 38 31 68 23 8 -1
18 -3 23 -3z m-549 -989 c46 -47 65 -100 47 -133 -8 -14 -13 -62 -12 -121 0
-93 1 -100 25 -120 14 -12 32 -37 39 -55 13 -29 59 -62 88 -62 5 0 14 -7 19
-16 5 -8 19 -21 32 -27 17 -9 27 -26 34 -59 7 -30 19 -54 34 -64 12 -8 22 -24
22 -35 0 -11 11 -24 24 -30 13 -6 27 -20 29 -30 3 -11 14 -19 25 -19 25 0 89
-26 97 -40 3 -5 15 -10 25 -10 25 0 75 -43 90 -79 7 -17 22 -32 36 -35 13 -4
24 -11 24 -16 0 -6 5 -10 12 -10 6 0 20 -8 30 -17 12 -11 44 -19 91 -22 58 -5
73 -10 82 -26 18 -36 69 -82 100 -90 58 -15 189 -16 250 -2 49 11 61 18 63 35
3 19 10 22 52 22 51 0 98 -15 115 -37 7 -10 59 -13 198 -14 165 -1 193 1 223
17 19 10 34 22 34 26 0 5 9 8 20 8 10 0 25 10 31 23 7 12 29 39 49 60 29 28
46 37 71 37 70 0 106 11 118 36 7 16 19 24 36 24 19 0 25 5 25 23 0 13 9 26
22 32 16 7 25 23 31 51 8 45 34 64 87 64 15 0 30 4 32 10 2 5 25 25 52 42 38
26 53 43 64 76 7 23 18 42 23 42 4 0 15 14 24 30 14 27 20 30 65 30 36 0 50 4
50 14 0 7 16 21 35 30 19 9 35 21 35 26 0 5 11 19 23 32 40 39 67 118 67 197
0 70 0 71 44 116 24 25 51 45 59 45 9 0 17 10 19 23 5 36 42 34 83 -6 19 -19
35 -39 35 -46 0 -6 20 -20 45 -31 47 -20 55 -33 30 -48 -11 -6 -18 -31 -22
-82 -5 -60 -11 -78 -30 -96 -16 -15 -23 -32 -23 -58 0 -26 -7 -44 -24 -59 -13
-12 -27 -37 -31 -56 -4 -19 -18 -44 -32 -57 -16 -14 -27 -38 -30 -64 -5 -32
-11 -44 -29 -51 -16 -6 -24 -16 -24 -33 0 -17 -7 -26 -25 -30 -15 -4 -25 -13
-25 -25 0 -10 -7 -24 -15 -31 -8 -7 -15 -18 -15 -24 0 -6 -10 -16 -22 -21 -13
-6 -24 -20 -26 -32 -2 -15 -13 -25 -28 -29 -17 -4 -24 -13 -24 -30 0 -19 -5
-24 -25 -24 -18 0 -25 -5 -25 -20 0 -12 -12 -26 -30 -35 -16 -8 -34 -24 -40
-35 -6 -11 -17 -20 -25 -20 -7 0 -30 -16 -51 -35 -20 -19 -45 -35 -54 -35 -11
0 -20 -10 -24 -25 -5 -18 -13 -25 -31 -25 -15 0 -31 -10 -41 -25 -11 -17 -28
-26 -60 -31 -33 -5 -44 -11 -44 -24 0 -19 -45 -40 -87 -40 -17 0 -27 -7 -30
-20 -6 -22 -18 -26 -102 -34 -37 -4 -58 -11 -67 -24 -9 -14 -31 -21 -76 -26
-35 -4 -81 -16 -103 -26 -98 -46 -637 -47 -719 -1 -18 11 -60 22 -92 26 -79 9
-94 14 -94 30 0 9 -19 16 -57 20 -89 9 -105 14 -110 35 -3 12 -14 20 -26 20
-36 0 -85 23 -90 42 -3 10 -14 18 -27 18 -27 0 -61 18 -78 42 -7 10 -23 18
-36 18 -15 0 -27 9 -34 25 -6 14 -20 25 -29 25 -18 0 -56 29 -124 95 -21 19
-42 35 -48 35 -6 0 -16 11 -21 25 -5 14 -18 25 -28 25 -10 0 -22 12 -29 30 -6
17 -18 30 -25 30 -8 0 -22 16 -31 35 -9 19 -20 35 -25 35 -4 0 -21 20 -36 44
-15 25 -34 47 -42 50 -8 3 -14 11 -14 19 0 7 -11 23 -23 34 -13 11 -30 41 -38
67 -7 25 -21 48 -29 51 -9 3 -22 27 -29 55 -8 31 -19 51 -31 55 -12 4 -19 20
-24 57 -4 28 -14 56 -22 62 -15 12 -32 81 -41 169 -5 54 -4 57 16 57 14 0 28
11 39 30 9 17 25 33 35 36 9 3 17 9 17 14 0 9 28 40 37 40 3 0 23 -18 45 -39z
m1575 -740 c3 -13 21 -22 63 -31 42 -9 60 -18 63 -31 4 -13 18 -20 55 -25 47
-6 50 -8 55 -41 10 -61 6 -63 -113 -63 -62 0 -111 4 -115 10 -3 6 -15 10 -26
10 -11 0 -22 7 -25 15 -4 8 -17 15 -30 15 -22 0 -24 4 -24 54 0 83 12 106 56
106 27 0 37 -5 41 -19z"/>
</g>
</svg>
