<?xml version="1.0" standalone="no"?>
<!DOCTYPE svg PUBLIC "-//W3C//DTD SVG 20010904//EN"
 "http://www.w3.org/TR/2001/REC-SVG-20010904/DTD/svg10.dtd">
<svg version="1.0" xmlns="http://www.w3.org/2000/svg"
 width="500.000000pt" height="500.000000pt" viewBox="0 0 500.000000 500.000000"
 preserveAspectRatio="xMidYMid meet">

<g transform="translate(0.000000,500.000000) scale(0.100000,-0.100000)"
fill="#000000" stroke="none">
<path d="M0 4028 l0 -973 182 3 c101 1 230 1 288 0 l105 -3 -70 -18 c-38 -10
-79 -20 -90 -24 -11 -3 -17 -2 -13 2 4 4 2 13 -5 19 -24 24 -110 10 -359 -55
l-38 -10 0 -1484 0 -1485 2500 0 2500 0 0 1486 c0 1185 -3 1485 -12 1482 -7
-3 -435 -110 -950 -239 l-938 -234 0 -57 0 -58 -40 0 -40 0 0 45 c0 25 -5 45
-11 45 -5 0 -65 -14 -132 -31 -67 -17 -147 -35 -177 -39 -30 -5 -80 -18 -110
-29 -30 -11 -77 -20 -105 -21 -59 0 -156 22 -186 41 -18 12 -37 12 -137 -2
-92 -14 -158 -16 -309 -12 -106 4 -193 10 -193 15 0 4 -82 8 -182 9 l-183 1
183 46 182 46 0 278 0 278 205 0 c197 0 205 -1 215 -21 16 -29 7 -34 -43 -20
-24 7 -98 16 -165 19 l-121 7 -3 -148 -3 -147 55 -1 c30 -1 60 0 65 1 6 1 36
4 68 7 54 6 57 5 57 -17 l0 -23 -120 8 -120 7 0 -101 c0 -56 2 -101 6 -101 5
0 243 59 324 80 l35 9 0 108 c1 106 1 109 39 180 21 40 46 75 56 78 9 3 25 13
36 23 10 9 44 29 74 44 49 25 66 28 157 28 56 0 113 -4 127 -10 14 -5 56 -32
94 -59 68 -50 122 -123 122 -167 1 -44 12 -46 108 -22 l92 22 0 98 c0 103 2
99 -47 101 -37 2 -139 -16 -170 -28 -33 -14 -33 -14 -33 16 l0 29 285 0 285 0
0 -26 c0 -21 -4 -25 -17 -19 -10 3 -36 10 -58 14 -22 5 -44 9 -50 11 -5 1 -34
2 -62 1 l-53 -1 0 -85 c0 -51 4 -85 10 -85 6 0 199 47 430 105 l420 105 187 0
c104 0 183 -4 178 -9 -11 -9 -123 -41 -144 -41 -7 0 -9 5 -6 10 3 6 -4 10 -17
10 -17 0 -19 3 -9 9 8 5 -25 7 -80 4 -76 -3 -177 -24 -531 -111 l-438 -107 0
-46 0 -46 153 37 c337 83 909 210 940 209 28 -1 -93 -43 -200 -71 -46 -11 -83
-25 -83 -30 0 -5 8 -7 18 -4 37 12 220 36 274 36 33 0 58 -5 60 -11 3 -8 35
-3 103 14 55 14 141 33 190 42 115 21 181 41 227 71 21 13 43 24 50 25 7 0 4
4 -7 8 -22 9 -51 7 -213 -16 -62 -8 -115 -13 -118 -11 -2 3 56 15 129 27 136
21 339 29 322 12 -20 -19 -275 -110 -445 -159 -384 -111 -964 -256 -987 -248
-8 4 -11 1 -7 -5 4 -8 -4 -9 -27 -4 -26 5 -31 4 -19 -5 12 -9 8 -10 -17 -5
-18 4 -67 -2 -119 -15 -100 -24 -120 -22 -36 4 94 29 395 147 389 152 -2 2
-71 -9 -153 -25 -82 -16 -171 -32 -199 -35 -46 -6 -44 -4 30 19 50 16 91 23
110 20 19 -4 25 -3 17 3 -8 5 24 16 95 31 103 21 206 51 199 58 -2 3 -254 -50
-541 -115 l-130 -29 -3 -50 -2 -51 57 23 c32 13 78 26 103 29 l45 6 -40 -19
c-22 -11 -47 -20 -55 -21 -8 0 -24 -7 -35 -16 -18 -13 -17 -14 15 -9 19 2 6
-3 -29 -11 -44 -11 -59 -19 -50 -25 10 -6 11 -9 2 -9 -7 0 -13 -11 -13 -25 0
-14 5 -25 10 -25 8 0 1723 426 1853 461 29 8 37 15 37 32 0 20 -4 23 -37 20
l-38 -2 38 10 37 11 0 974 0 974 -2500 0 -2500 0 0 -972z m4455 -998 c-16 -4
-41 -8 -55 -8 l-25 0 25 8 c14 4 39 8 55 8 l30 0 -30 -8z m462 -6 c-3 -3 -12
-4 -19 -1 -8 3 -5 6 6 6 11 1 17 -2 13 -5z m-554 -11 c-7 -2 -21 -2 -30 0 -10
3 -4 5 12 5 17 0 24 -2 18 -5z m-60 -10 c-7 -2 -19 -2 -25 0 -7 3 -2 5 12 5
14 0 19 -2 13 -5z m-50 -10 c-7 -2 -19 -2 -25 0 -7 3 -2 5 12 5 14 0 19 -2 13
-5z m-826 -349 c-3 -3 -12 -4 -19 -1 -8 3 -5 6 6 6 11 1 17 -2 13 -5z m-40
-10 c-3 -3 -12 -4 -19 -1 -8 3 -5 6 6 6 11 1 17 -2 13 -5z m-90 -20 c-3 -3
-12 -4 -19 -1 -8 3 -5 6 6 6 11 1 17 -2 13 -5z m-40 -10 c-3 -3 -12 -4 -19 -1
-8 3 -5 6 6 6 11 1 17 -2 13 -5z m-90 -20 c-3 -3 -12 -4 -19 -1 -8 3 -5 6 6 6
11 1 17 -2 13 -5z"/>
<path d="M2440 3052 c-19 -1 -49 -9 -67 -17 -17 -8 -34 -15 -37 -15 -4 0 -24
-12 -47 -27 l-40 -26 25 -26 c13 -14 26 -35 28 -45 5 -29 54 -39 86 -18 29 19
169 24 230 9 29 -8 32 -6 32 13 0 11 11 31 25 44 24 22 24 24 7 39 -10 9 -33
22 -50 28 -18 6 -32 15 -32 21 0 5 -5 6 -10 3 -6 -4 -16 -2 -23 3 -15 11 -79
19 -127 14z"/>
<path d="M130 3043 c-8 -1 -41 -5 -72 -8 -50 -6 -58 -9 -58 -27 0 -12 5 -18
13 -15 6 2 47 12 90 22 88 21 106 40 27 28z"/>
<path d="M3985 2880 c-74 -7 -427 -81 -421 -88 3 -2 50 6 107 17 56 12 111 21
123 21 30 -1 -65 -48 -194 -96 -57 -21 -97 -40 -89 -42 20 -4 162 30 301 71
62 19 164 49 226 67 l114 33 -32 14 c-18 7 -40 12 -49 12 -9 -1 -47 -5 -86 -9z"/>
<path d="M2451 2861 c-39 -5 -47 -11 -77 -58 -39 -61 -26 -71 29 -23 19 17 44
30 55 30 23 0 95 -31 100 -42 2 -5 8 -8 14 -8 5 0 16 -6 24 -14 12 -12 21 -12
65 -1 28 8 53 16 56 18 6 7 -22 61 -39 74 -12 10 -43 15 -143 26 -22 3 -60 2
-84 -2z"/>
<path d="M2254 2817 c-66 -101 -71 -147 -17 -147 13 0 33 -5 43 -10 13 -7 21
-7 25 0 3 5 18 10 33 10 28 0 210 45 219 53 5 6 -78 57 -92 57 -5 0 -23 -14
-40 -30 -42 -40 -95 -50 -113 -20 -11 18 -10 26 7 55 l20 34 -24 15 c-33 22
-37 21 -61 -17z"/>
<path d="M2906 2787 c-62 -17 -74 -23 -55 -28 24 -6 37 -5 122 6 38 5 47 10
47 26 0 23 -11 23 -114 -4z"/>
<path d="M3518 2783 c6 -2 18 -2 25 0 6 3 1 5 -13 5 -14 0 -19 -2 -12 -5z"/>
<path d="M2970 2740 c-14 -4 -49 -8 -77 -9 -50 -1 -53 -3 -53 -26 0 -14 2 -25
5 -25 3 0 44 10 90 21 55 14 85 26 85 35 0 15 -12 16 -50 4z"/>
<path d="M2677 2728 l-38 -10 39 -29 c42 -31 67 -30 77 2 7 21 -10 50 -29 48
-6 -1 -28 -6 -49 -11z"/>
<path d="M2468 2676 c-48 -12 -90 -25 -93 -27 -8 -9 59 -79 75 -79 13 0 13 -2
0 -10 -17 -11 -5 -13 29 -3 23 6 23 7 5 14 -15 6 -16 8 -3 8 9 1 19 7 22 15 4
11 14 12 44 6 20 -5 39 -7 42 -4 2 2 -1 4 -8 4 -7 0 -9 5 -6 10 3 6 0 10 -8
10 -25 0 -39 26 -23 39 15 12 49 -2 84 -36 7 -7 21 -13 30 -12 14 0 13 2 -3
10 -17 8 -16 9 8 6 15 -3 27 -3 27 -1 0 12 -97 74 -114 73 -12 0 -60 -11 -108
-23z"/>
<path d="M2848 2663 c7 -3 16 -2 19 1 4 3 -2 6 -13 5 -11 0 -14 -3 -6 -6z"/>
<path d="M2155 2639 c-4 -6 -4 -13 -1 -16 8 -8 36 5 36 17 0 13 -27 13 -35 -1z"/>
<path d="M2913 2622 c-79 -26 -113 -45 -101 -58 3 -3 28 4 55 15 60 25 133 44
141 37 3 -4 -14 -14 -38 -23 -40 -16 -41 -18 -19 -23 17 -4 -2 -11 -66 -24
-101 -20 -113 -25 -94 -37 11 -7 10 -9 -3 -9 -9 0 -23 -8 -30 -18 -7 -10 -25
-27 -40 -36 -16 -10 -28 -22 -28 -26 0 -4 74 11 165 34 164 40 165 41 165 68
0 16 -6 28 -12 28 -9 0 -8 4 2 10 12 8 10 10 -10 10 -25 1 -25 1 -2 10 16 7
22 18 22 40 0 36 -3 36 -107 2z m74 -78 c-3 -3 -12 -4 -19 -1 -8 3 -5 6 6 6
11 1 17 -2 13 -5z m-50 -10 c-3 -3 -12 -4 -19 -1 -8 3 -5 6 6 6 11 1 17 -2 13
-5z m-50 -10 c-3 -3 -12 -4 -19 -1 -8 3 -5 6 6 6 11 1 17 -2 13 -5z m-44 -11
c-7 -2 -19 -2 -25 0 -7 3 -2 5 12 5 14 0 19 -2 13 -5z"/>
<path d="M2163 2593 c2 -5 11 -25 21 -45 19 -42 33 -55 47 -41 7 7 1 21 -15
41 -14 16 -26 35 -26 41 0 6 -7 11 -16 11 -8 0 -13 -3 -11 -7z"/>
<path d="M1928 2541 l-178 -46 0 -32 c0 -36 5 -38 77 -24 62 12 43 -3 -22 -18
-30 -7 -55 -17 -55 -22 0 -11 111 -11 165 0 22 5 85 25 140 45 55 20 106 39
113 41 10 4 6 17 -14 55 -15 27 -32 49 -38 49 -6 -1 -91 -22 -188 -48z"/>
<path d="M2747 2573 c-9 -2 -15 -8 -12 -13 2 -4 -9 -14 -27 -21 -27 -11 -28
-14 -12 -19 14 -5 8 -9 -23 -14 -40 -7 -60 -25 -30 -27 6 0 -4 -5 -23 -11 -19
-5 -44 -18 -56 -29 -15 -14 -31 -19 -58 -16 -20 2 -40 7 -43 11 -4 3 -17 -1
-30 -9 -16 -11 -34 -14 -59 -9 -25 5 -32 9 -22 15 8 6 -3 9 -32 9 l-45 -1 50
-26 c38 -20 69 -27 131 -31 101 -5 161 12 224 67 l44 38 -34 -3 -35 -3 31 8
c18 4 40 11 50 16 18 7 18 8 -1 15 -19 8 -19 9 1 9 12 1 29 12 38 26 17 26 13
28 -27 18z"/>
<path d="M2225 2490 c-3 -5 3 -10 14 -10 12 0 21 5 21 10 0 6 -6 10 -14 10 -8
0 -18 -4 -21 -10z"/>
<path d="M2475 2490 c-3 -5 -1 -10 4 -10 6 0 11 5 11 10 0 6 -2 10 -4 10 -3 0
-8 -4 -11 -10z"/>
<path d="M2140 2462 c-37 -14 -44 -21 -42 -39 4 -25 28 -29 116 -17 39 6 44 9
34 21 -9 11 -25 14 -63 9 -48 -5 -48 -5 -18 7 31 11 45 29 26 33 -4 1 -28 -5
-53 -14z"/>
<path d="M2495 2470 c-3 -5 3 -10 14 -10 12 0 21 5 21 10 0 6 -6 10 -14 10 -8
0 -18 -4 -21 -10z"/>
<path d="M1525 2440 c-98 -28 -99 -28 -50 -29 28 -1 80 2 118 6 62 5 67 8 67
29 0 30 -6 29 -135 -6z"/>
</g>
</svg>
